<svg width="286" height="316" viewBox="0 0 286 316" fill="none" xmlns="http://www.w3.org/2000/svg">
<path d="M209 174.334L209.348 174.693L209.342 174.698L209 174.334ZM230.805 25.9654L230.852 31.7387L225.829 28.8929L230.805 25.9654ZM25.9974 253.334C25.7212 253.332 25.4986 253.107 25.5001 252.831C25.5016 252.555 25.7267 252.332 26.0028 252.334L25.9974 253.334ZM26.0001 252.834C26.0028 252.334 26.0028 252.334 26.0028 252.334C26.0028 252.334 26.0028 252.334 26.0028 252.334C26.0028 252.334 26.0029 252.334 26.0029 252.334C26.003 252.334 26.0032 252.334 26.0035 252.334C26.0039 252.334 26.0047 252.334 26.0057 252.334C26.0077 252.334 26.0107 252.334 26.0148 252.334C26.023 252.334 26.0353 252.334 26.0517 252.334C26.0846 252.334 26.1338 252.334 26.1991 252.334C26.3297 252.334 26.5243 252.334 26.7797 252.333C27.2907 252.332 28.0452 252.327 29.018 252.313L29.0315 253.313C28.0552 253.326 27.2974 253.332 26.7833 253.333C26.5263 253.334 26.3301 253.334 26.1981 253.334C26.1321 253.334 26.0821 253.334 26.0485 253.334C26.0317 253.334 26.019 253.334 26.0105 253.334C26.0062 253.334 26.003 253.334 26.0008 253.334C25.9997 253.334 25.9989 253.334 25.9983 253.334C25.998 253.334 25.9978 253.334 25.9976 253.334C25.9976 253.334 25.9975 253.334 25.9974 253.334C25.9974 253.334 25.9974 253.334 25.9974 253.334C25.9974 253.334 25.9974 253.334 26.0001 252.834ZM35.1144 252.173C36.9333 252.116 38.9843 252.039 41.2299 251.934L41.2764 252.933C39.0255 253.038 36.9695 253.115 35.1458 253.173L35.1144 252.173ZM47.3171 251.606C49.2588 251.488 51.2951 251.35 53.4095 251.19L53.4851 252.187C51.3656 252.347 49.3244 252.486 47.3781 252.604L47.3171 251.606ZM59.4763 250.684C61.4549 250.503 63.4822 250.304 65.5468 250.082L65.6536 251.076C63.5833 251.298 61.5507 251.499 59.567 251.68L59.4763 250.684ZM71.6109 249.378C73.6041 249.129 75.6205 248.86 77.6506 248.567L77.7933 249.557C75.7565 249.85 73.734 250.121 71.7348 250.371L71.6109 249.378ZM83.6796 247.635C85.6786 247.304 87.6819 246.95 89.6808 246.571L89.8671 247.553C87.8601 247.934 85.8491 248.289 83.8429 248.621L83.6796 247.635ZM95.6523 245.358C97.6475 244.925 99.6293 244.465 101.589 243.976L101.831 244.947C99.8607 245.438 97.8689 245.9 95.8645 246.336L95.6523 245.358ZM107.465 242.402C109.442 241.834 111.386 241.232 113.285 240.597L113.602 241.546C111.688 242.186 109.731 242.791 107.742 243.363L107.465 242.402ZM118.999 238.526C119.949 238.152 120.884 237.768 121.803 237.374L122.197 238.293C121.269 238.692 120.324 239.079 119.365 239.456L118.999 238.526ZM121.803 237.374C122.699 236.99 123.605 236.585 124.52 236.16L124.942 237.067C124.018 237.496 123.103 237.905 122.197 238.293L121.803 237.374ZM129.879 233.507C131.61 232.601 133.364 231.637 135.134 230.624L135.631 231.492C133.851 232.511 132.086 233.48 130.343 234.393L129.879 233.507ZM140.288 227.568C141.97 226.536 143.662 225.468 145.357 224.37L145.901 225.209C144.199 226.311 142.501 227.384 140.81 228.42L140.288 227.568ZM150.359 221.051C152.006 219.934 153.651 218.794 155.289 217.638L155.866 218.455C154.223 219.615 152.573 220.758 150.921 221.879L150.359 221.051ZM160.163 214.139C161.783 212.957 163.391 211.764 164.982 210.567L165.583 211.366C163.989 212.566 162.377 213.761 160.753 214.947L160.163 214.139ZM169.759 206.925C171.359 205.688 172.936 204.453 174.485 203.227L175.105 204.011C173.554 205.24 171.974 206.477 170.37 207.716L169.759 206.925ZM179.169 199.475C180.76 198.187 182.312 196.915 183.818 195.67L184.456 196.44C182.947 197.688 181.392 198.961 179.799 200.252L179.169 199.475ZM188.424 191.822C190.016 190.479 191.541 189.179 192.987 187.936L193.639 188.694C192.19 189.94 190.664 191.241 189.069 192.587L188.424 191.822ZM197.527 183.993C199.18 182.545 200.681 181.214 202.007 180.028L202.673 180.774C201.345 181.962 199.842 183.294 198.187 184.745L197.527 183.993ZM206.465 175.996C207.176 175.345 207.724 174.838 208.095 174.494C208.28 174.322 208.421 174.191 208.515 174.103C208.563 174.059 208.598 174.025 208.622 174.003C208.634 173.992 208.643 173.983 208.649 173.978C208.652 173.975 208.654 173.973 208.655 173.972C208.656 173.971 208.657 173.97 208.657 173.97C208.657 173.97 208.657 173.97 208.657 173.97C208.657 173.97 208.658 173.97 208.658 173.97C208.658 173.97 208.658 173.97 208.658 173.97C208.658 173.97 208.658 173.97 209 174.334C209.342 174.698 209.342 174.698 209.342 174.698C209.342 174.698 209.342 174.698 209.342 174.698C209.342 174.698 209.342 174.699 209.342 174.699C209.342 174.699 209.342 174.699 209.342 174.699C209.341 174.699 209.341 174.7 209.34 174.701C209.338 174.702 209.336 174.704 209.333 174.707C209.327 174.713 209.318 174.721 209.306 174.733C209.282 174.755 209.246 174.789 209.198 174.833C209.103 174.922 208.961 175.054 208.775 175.227C208.403 175.572 207.853 176.081 207.14 176.734L206.465 175.996ZM209 174.334C208.652 173.975 208.652 173.975 208.652 173.975C208.652 173.975 208.652 173.975 208.652 173.975C208.652 173.975 208.652 173.975 208.652 173.975C208.652 173.975 208.652 173.975 208.652 173.975C208.653 173.974 208.653 173.974 208.654 173.973C208.655 173.972 208.657 173.97 208.66 173.967C208.666 173.961 208.675 173.953 208.686 173.941C208.71 173.918 208.745 173.883 208.792 173.836C208.885 173.743 209.023 173.604 209.2 173.42C209.553 173.053 210.062 172.511 210.68 171.813L211.429 172.476C210.801 173.185 210.282 173.738 209.92 174.114C209.739 174.302 209.597 174.446 209.499 174.543C209.451 174.592 209.413 174.629 209.388 174.654C209.375 174.667 209.365 174.676 209.358 174.683C209.355 174.686 209.353 174.689 209.351 174.69C209.35 174.691 209.349 174.692 209.349 174.692C209.348 174.693 209.348 174.693 209.348 174.693C209.348 174.693 209.348 174.693 209.348 174.693C209.348 174.693 209.348 174.693 209.348 174.693C209.348 174.693 209.348 174.693 209 174.334ZM214.435 167.157C215.52 165.681 216.657 164.006 217.752 162.174L218.61 162.686C217.497 164.55 216.342 166.252 215.24 167.75L214.435 167.157ZM220.528 156.885C221.333 155.103 222.044 153.234 222.602 151.303L223.563 151.58C222.99 153.563 222.261 155.478 221.439 157.297L220.528 156.885ZM223.746 145.482C223.941 143.538 223.943 141.561 223.702 139.572L224.695 139.451C224.945 141.52 224.943 143.571 224.741 145.581L223.746 145.482ZM222.299 133.853C221.636 132.095 220.744 130.339 219.587 128.601L220.42 128.047C221.618 129.847 222.544 131.67 223.235 133.5L222.299 133.853ZM215.837 124.006C215.165 123.319 214.444 122.637 213.671 121.96L214.329 121.208C215.121 121.901 215.861 122.601 216.552 123.307L215.837 124.006ZM213.671 121.96C212.927 121.31 212.238 120.619 211.602 119.891L212.355 119.233C212.962 119.927 213.619 120.587 214.329 121.208L213.671 121.96ZM208.372 115.05C207.521 113.349 206.855 111.529 206.353 109.613L207.321 109.36C207.807 111.216 208.45 112.97 209.267 114.602L208.372 115.05ZM205.351 103.908C205.165 102.046 205.095 100.122 205.128 98.1508L206.128 98.1673C206.096 100.105 206.164 101.99 206.346 103.809L205.351 103.908ZM205.487 92.403C205.683 90.5321 205.954 88.6326 206.288 86.7157L207.273 86.8876C206.942 88.7843 206.675 90.6612 206.482 92.5073L205.487 92.403ZM207.436 81.0838C207.863 79.2362 208.34 77.3822 208.857 75.5314L209.82 75.8004C209.307 77.6381 208.834 79.4775 208.41 81.3093L207.436 81.0838ZM210.506 70.0404C211.091 68.2161 211.707 66.404 212.346 64.6138L213.288 64.9498C212.652 66.7306 212.04 68.5324 211.458 70.3456L210.506 70.0404ZM214.35 59.2429C215.052 57.4382 215.77 55.6673 216.493 53.9405L217.415 54.3267C216.695 56.0462 215.981 57.8093 215.282 59.6055L214.35 59.2429ZM218.77 48.6747C219.574 46.8729 220.372 45.1392 221.152 43.488L222.056 43.9149C221.279 45.5601 220.484 47.2873 219.683 49.0821L218.77 48.6747ZM223.658 38.3196C224.591 36.4447 225.468 34.7343 226.262 33.2198L227.148 33.6839C226.357 35.1927 225.483 36.8969 224.553 38.7652L223.658 38.3196ZM209 174.334L209.695 175.053L209.69 175.058L209.685 175.063L209 174.334ZM230.805 25.9654L230.9 37.512L220.853 31.8204L230.805 25.9654ZM25.9946 253.834C25.4424 253.831 24.9971 253.381 25.0001 252.828C25.0031 252.276 25.4532 251.831 26.0055 251.834L25.9946 253.834ZM26.0001 252.834C26.0055 251.834 26.0055 251.834 26.0055 251.834C26.0055 251.834 26.0055 251.834 26.0055 251.834C26.0055 251.834 26.0055 251.834 26.0056 251.834C26.0057 251.834 26.0058 251.834 26.006 251.834C26.0065 251.834 26.0072 251.834 26.0081 251.834C26.01 251.834 26.013 251.834 26.017 251.834C26.025 251.834 26.0371 251.834 26.0534 251.834C26.0859 251.834 26.1347 251.834 26.1996 251.834C26.3294 251.834 26.5232 251.834 26.7779 251.833C27.2873 251.832 28.0402 251.827 29.0112 251.813L29.0383 253.813C28.0603 253.826 27.3008 253.832 26.7851 253.833C26.5273 253.834 26.3304 253.834 26.1976 253.834C26.1312 253.834 26.0808 253.834 26.0468 253.834C26.0299 253.834 26.017 253.834 26.0083 253.834C26.0039 253.834 26.0006 253.834 25.9983 253.834C25.9972 253.834 25.9963 253.834 25.9957 253.834C25.9954 253.834 25.9951 253.834 25.995 253.834C25.9949 253.834 25.9948 253.834 25.9948 253.834C25.9947 253.834 25.9947 253.834 25.9947 253.834C25.9947 253.834 25.9946 253.834 26.0001 252.834ZM35.0987 251.674C36.9153 251.616 38.9637 251.539 41.2066 251.435L41.2997 253.433C39.0461 253.537 36.9875 253.615 35.1615 253.673L35.0987 251.674ZM47.2866 251.107C49.226 250.989 51.2599 250.851 53.3717 250.691L53.5229 252.685C51.4008 252.846 49.3572 252.984 47.4085 253.104L47.2866 251.107ZM59.4309 250.186C61.407 250.006 63.4317 249.806 65.4935 249.585L65.7069 251.573C63.6339 251.796 61.5985 251.997 59.6123 252.177L59.4309 250.186ZM71.5489 248.882C73.5392 248.634 75.5524 248.364 77.5793 248.072L77.8646 250.052C75.8246 250.346 73.7989 250.617 71.7968 250.867L71.5489 248.882ZM83.5979 247.141C85.5934 246.811 87.5928 246.458 89.5876 246.08L89.9602 248.045C87.9492 248.426 85.9343 248.782 83.9245 249.115L83.5979 247.141ZM95.5461 244.87C97.5367 244.437 99.5136 243.978 101.468 243.491L101.952 245.432C99.9764 245.924 97.9797 246.388 95.9706 246.824L95.5461 244.87ZM107.327 241.922C109.298 241.355 111.234 240.756 113.127 240.123L113.761 242.02C111.84 242.662 109.876 243.27 107.88 243.844L107.327 241.922ZM118.816 238.061C119.762 237.689 120.692 237.307 121.606 236.915L122.394 238.753C121.461 239.153 120.512 239.543 119.548 239.922L118.816 238.061ZM121.606 236.915C122.497 236.532 123.399 236.129 124.31 235.706L125.152 237.52C124.224 237.951 123.305 238.362 122.394 238.753L121.606 236.915ZM129.647 233.064C131.372 232.161 133.12 231.2 134.886 230.19L135.879 231.926C134.094 232.947 132.324 233.92 130.575 234.836L129.647 233.064ZM140.026 227.141C141.705 226.112 143.394 225.046 145.085 223.95L146.173 225.629C144.468 226.733 142.766 227.808 141.071 228.846L140.026 227.141ZM150.078 220.637C151.723 219.522 153.365 218.384 155.001 217.23L156.154 218.864C154.509 220.025 152.856 221.17 151.201 222.292L150.078 220.637ZM159.869 213.735C161.486 212.554 163.092 211.363 164.682 210.167L165.884 211.766C164.287 212.967 162.674 214.164 161.048 215.35L159.869 213.735ZM169.453 206.529C171.051 205.294 172.627 204.06 174.174 202.835L175.416 204.403C173.863 205.633 172.281 206.871 170.676 208.111L169.453 206.529ZM178.854 199.086C180.444 197.799 181.995 196.529 183.5 195.284L184.774 196.826C183.264 198.074 181.708 199.349 180.113 200.641L178.854 199.086ZM188.102 191.44C189.693 190.098 191.216 188.799 192.661 187.556L193.965 189.073C192.515 190.32 190.987 191.622 189.391 192.969L188.102 191.44ZM197.198 183.618C198.849 182.17 200.348 180.84 201.673 179.656L203.006 181.146C201.677 182.335 200.173 183.669 198.516 185.121L197.198 183.618ZM206.127 175.627C206.837 174.977 207.385 174.471 207.755 174.128C207.94 173.956 208.08 173.825 208.174 173.737C208.221 173.693 208.257 173.66 208.28 173.638C208.292 173.627 208.301 173.619 208.307 173.613C208.31 173.611 208.312 173.608 208.313 173.607C208.314 173.606 208.314 173.606 208.315 173.606C208.315 173.606 208.315 173.605 208.315 173.605C208.315 173.605 208.315 173.605 208.315 173.605C208.315 173.605 208.315 173.605 208.315 173.605C208.315 173.605 208.315 173.605 209 174.334C209.685 175.063 209.685 175.063 209.685 175.063C209.685 175.063 209.685 175.063 209.685 175.063C209.685 175.063 209.685 175.063 209.684 175.063C209.684 175.063 209.684 175.063 209.684 175.063C209.684 175.064 209.683 175.064 209.682 175.065C209.681 175.067 209.678 175.069 209.675 175.072C209.669 175.078 209.66 175.086 209.648 175.098C209.623 175.12 209.587 175.154 209.539 175.199C209.444 175.288 209.302 175.42 209.115 175.593C208.742 175.94 208.191 176.449 207.478 177.102L206.127 175.627ZM209 174.334C208.305 173.615 208.304 173.615 208.304 173.616C208.304 173.616 208.304 173.616 208.304 173.616C208.304 173.616 208.304 173.616 208.304 173.616C208.304 173.616 208.304 173.616 208.304 173.616C208.305 173.615 208.305 173.615 208.305 173.615C208.306 173.613 208.308 173.612 208.311 173.609C208.316 173.604 208.325 173.596 208.336 173.585C208.358 173.563 208.393 173.529 208.438 173.483C208.529 173.392 208.665 173.254 208.84 173.073C209.189 172.711 209.693 172.174 210.306 171.481L211.803 172.807C211.17 173.522 210.647 174.08 210.28 174.461C210.097 174.651 209.952 174.797 209.853 174.897C209.803 174.946 209.765 174.984 209.738 175.011C209.725 175.024 209.715 175.034 209.708 175.041C209.704 175.044 209.701 175.047 209.699 175.049C209.698 175.05 209.697 175.051 209.697 175.051C209.696 175.052 209.696 175.052 209.696 175.052C209.696 175.052 209.696 175.052 209.696 175.052C209.696 175.052 209.695 175.053 209.695 175.053C209.695 175.053 209.695 175.053 209 174.334ZM214.032 166.861C215.109 165.396 216.237 163.735 217.323 161.917L219.04 162.943C217.917 164.822 216.753 166.537 215.643 168.046L214.032 166.861ZM220.072 156.679C220.869 154.916 221.571 153.069 222.121 151.164L224.043 151.719C223.462 153.728 222.725 155.665 221.895 157.503L220.072 156.679ZM223.249 145.432C223.44 143.521 223.442 141.581 223.206 139.632L225.191 139.391C225.447 141.5 225.443 143.588 225.239 145.631L223.249 145.432ZM221.832 134.03C221.182 132.307 220.307 130.585 219.171 128.878L220.836 127.77C222.054 129.601 222.998 131.457 223.703 133.324L221.832 134.03ZM215.48 124.356C214.817 123.678 214.105 123.005 213.341 122.337L214.658 120.831C215.46 121.533 216.209 122.241 216.91 122.957L215.48 124.356ZM213.341 122.337C212.581 121.671 211.876 120.965 211.226 120.22L212.732 118.904C213.324 119.582 213.966 120.225 214.658 120.831L213.341 122.337ZM207.925 115.273C207.057 113.538 206.379 111.685 205.869 109.74L207.804 109.233C208.283 111.059 208.914 112.78 209.714 114.378L207.925 115.273ZM204.853 103.958C204.665 102.074 204.595 100.131 204.628 98.1425L206.628 98.1756C206.596 100.096 206.664 101.962 206.843 103.759L204.853 103.958ZM204.99 92.3509C205.187 90.4676 205.459 88.5568 205.795 86.6298L207.766 86.9735C207.437 88.8602 207.171 90.7258 206.979 92.5594L204.99 92.3509ZM206.948 80.9711C207.378 79.1156 207.857 77.2543 208.375 75.3969L210.302 75.9349C209.79 77.766 209.319 79.5982 208.897 81.4221L206.948 80.9711ZM210.03 69.8878C210.617 68.0579 211.234 66.2408 211.875 64.4458L213.758 65.1178C213.125 66.8939 212.514 68.6905 211.935 70.4982L210.03 69.8878ZM213.884 59.0616C214.588 57.2527 215.307 55.4778 216.031 53.7474L217.876 54.5198C217.158 56.2357 216.445 57.9949 215.748 59.7869L213.884 59.0616ZM218.314 48.471C219.119 46.6657 219.919 44.9287 220.7 43.2745L222.508 44.1284C221.733 45.7705 220.939 47.4945 220.14 49.2859L218.314 48.471ZM223.21 38.0969C224.145 36.2186 225.024 34.5051 225.819 32.9878L227.591 33.9159C226.801 35.4219 225.929 37.123 225.001 38.9879L223.21 38.0969Z" fill="#3C4045"/>
<path d="M184 176.334L184.348 176.693L184.342 176.698L184 176.334ZM193.652 70.4749C193.851 70.2829 194.167 70.2881 194.359 70.4865C194.551 70.6849 194.546 71.0015 194.348 71.1935L193.652 70.4749ZM1.00008 254.834C1.00281 254.334 1.0028 254.334 1.0028 254.334C1.00281 254.334 1.00281 254.334 1.00282 254.334C1.00284 254.334 1.00288 254.334 1.00293 254.334C1.00304 254.334 1.00321 254.334 1.00346 254.334C1.00394 254.334 1.00468 254.334 1.00568 254.334C1.00768 254.334 1.01073 254.334 1.01482 254.334C1.02299 254.334 1.03532 254.334 1.05174 254.334C1.08459 254.334 1.13385 254.334 1.19912 254.334C1.32966 254.334 1.52425 254.334 1.77973 254.333C2.29069 254.332 3.04519 254.327 4.01796 254.313L4.03151 255.313C3.05524 255.326 2.29742 255.332 1.78331 255.333C1.52626 255.334 1.33013 255.334 1.19808 255.334C1.13206 255.334 1.08206 255.334 1.04848 255.334C1.03168 255.334 1.01899 255.334 1.01046 255.334C1.00619 255.334 1.00296 255.334 1.00078 255.334C0.999686 255.334 0.998852 255.334 0.998287 255.334C0.997998 255.334 0.99778 255.334 0.997626 255.334C0.997552 255.334 0.997489 255.334 0.997444 255.334C0.997425 255.334 0.9974 255.334 0.99739 255.334C0.997372 255.334 0.997362 255.334 1.00008 254.834ZM10.1144 254.173C11.9333 254.116 13.9843 254.039 16.2299 253.934L16.2764 254.933C14.0255 255.038 11.9695 255.115 10.1458 255.173L10.1144 254.173ZM22.3171 253.606C24.2588 253.488 26.2951 253.35 28.4095 253.19L28.4851 254.187C26.3656 254.347 24.3244 254.486 22.3781 254.604L22.3171 253.606ZM34.4763 252.684C36.4549 252.503 38.4822 252.304 40.5468 252.082L40.6536 253.076C38.5833 253.298 36.5507 253.499 34.567 253.68L34.4763 252.684ZM46.6109 251.378C48.6041 251.129 50.6205 250.86 52.6506 250.567L52.7933 251.557C50.7565 251.85 48.734 252.121 46.7348 252.371L46.6109 251.378ZM58.6796 249.635C60.6786 249.304 62.6819 248.95 64.6808 248.571L64.8671 249.553C62.8601 249.934 60.8491 250.289 58.8429 250.621L58.6796 249.635ZM70.6523 247.358C72.6475 246.925 74.6293 246.465 76.5888 245.976L76.8308 246.947C74.8607 247.438 72.8689 247.9 70.8645 248.336L70.6523 247.358ZM82.4652 244.402C84.4424 243.834 86.3857 243.232 88.2853 242.597L88.6024 243.546C86.6883 244.186 84.7313 244.791 82.7416 245.363L82.4652 244.402ZM93.9987 240.526C94.949 240.152 95.8843 239.768 96.8029 239.374L97.1971 240.293C96.2687 240.692 95.3241 241.079 94.3647 241.456L93.9987 240.526ZM96.8029 239.374C97.6989 238.99 98.6051 238.585 99.5204 238.16L99.9415 239.067C99.0178 239.496 98.1027 239.905 97.1971 240.293L96.8029 239.374ZM104.879 235.507C106.61 234.601 108.364 233.637 110.134 232.624L110.631 233.492C108.851 234.511 107.086 235.48 105.343 236.393L104.879 235.507ZM115.288 229.568C116.97 228.536 118.662 227.468 120.357 226.37L120.901 227.209C119.199 228.311 117.501 229.384 115.81 230.42L115.288 229.568ZM125.359 223.051C127.006 221.934 128.651 220.794 130.289 219.638L130.866 220.455C129.223 221.615 127.573 222.758 125.921 223.879L125.359 223.051ZM135.163 216.139C136.783 214.957 138.391 213.764 139.982 212.567L140.583 213.366C138.989 214.566 137.377 215.761 135.753 216.947L135.163 216.139ZM144.759 208.925C146.359 207.688 147.936 206.453 149.485 205.227L150.105 206.011C148.554 207.24 146.974 208.477 145.37 209.716L144.759 208.925ZM154.169 201.475C155.76 200.187 157.312 198.915 158.818 197.67L159.456 198.44C157.947 199.688 156.392 200.961 154.799 202.252L154.169 201.475ZM163.424 193.822C165.016 192.479 166.541 191.179 167.987 189.936L168.639 190.694C167.19 191.94 165.664 193.241 164.069 194.587L163.424 193.822ZM172.527 185.993C174.18 184.545 175.681 183.214 177.007 182.028L177.673 182.774C176.345 183.962 174.842 185.294 173.187 186.745L172.527 185.993ZM181.465 177.996C182.176 177.345 182.724 176.838 183.095 176.494C183.28 176.322 183.421 176.191 183.515 176.103C183.563 176.059 183.598 176.025 183.622 176.003C183.634 175.992 183.643 175.983 183.649 175.978C183.652 175.975 183.654 175.973 183.655 175.972C183.656 175.971 183.657 175.97 183.657 175.97C183.657 175.97 183.657 175.97 183.657 175.97C183.657 175.97 183.658 175.97 183.658 175.97C183.658 175.97 183.658 175.97 183.658 175.97C183.658 175.97 183.658 175.97 184 176.334C184.342 176.698 184.342 176.698 184.342 176.698C184.342 176.698 184.342 176.698 184.342 176.698C184.342 176.698 184.342 176.699 184.342 176.699C184.342 176.699 184.342 176.699 184.342 176.699C184.341 176.699 184.341 176.7 184.34 176.701C184.338 176.702 184.336 176.704 184.333 176.707C184.327 176.713 184.318 176.721 184.306 176.733C184.282 176.755 184.246 176.789 184.198 176.833C184.103 176.922 183.961 177.054 183.775 177.227C183.403 177.572 182.853 178.081 182.14 178.734L181.465 177.996ZM184 176.334C183.652 175.975 183.652 175.975 183.652 175.975C183.652 175.975 183.652 175.975 183.652 175.975C183.652 175.975 183.652 175.975 183.652 175.975C183.652 175.975 183.652 175.975 183.652 175.975C183.653 175.974 183.653 175.974 183.654 175.973C183.655 175.972 183.657 175.97 183.66 175.967C183.666 175.961 183.675 175.953 183.686 175.941C183.71 175.918 183.745 175.883 183.792 175.836C183.885 175.743 184.023 175.604 184.2 175.42C184.553 175.053 185.062 174.511 185.68 173.813L186.429 174.476C185.801 175.185 185.282 175.738 184.92 176.114C184.739 176.302 184.597 176.446 184.499 176.543C184.451 176.592 184.413 176.629 184.388 176.654C184.375 176.667 184.365 176.676 184.358 176.683C184.355 176.686 184.353 176.689 184.351 176.69C184.35 176.691 184.349 176.692 184.349 176.692C184.348 176.693 184.348 176.693 184.348 176.693C184.348 176.693 184.348 176.693 184.348 176.693C184.348 176.693 184.348 176.693 184.348 176.693C184.348 176.693 184.348 176.693 184 176.334ZM189.435 169.157C190.52 167.681 191.657 166.006 192.752 164.174L193.61 164.686C192.497 166.55 191.342 168.252 190.24 169.75L189.435 169.157ZM195.528 158.885C196.333 157.103 197.044 155.234 197.602 153.303L198.563 153.58C197.99 155.563 197.261 157.478 196.439 159.297L195.528 158.885ZM198.746 147.482C198.941 145.538 198.943 143.561 198.702 141.572L199.695 141.451C199.945 143.52 199.943 145.571 199.741 147.581L198.746 147.482ZM197.299 135.853C196.636 134.095 195.744 132.339 194.587 130.601L195.42 130.047C196.618 131.847 197.544 133.67 198.235 135.5L197.299 135.853ZM190.837 126.006C190.165 125.319 189.444 124.637 188.671 123.96L189.329 123.208C190.121 123.901 190.861 124.601 191.552 125.307L190.837 126.006ZM188.671 123.96C187.879 123.268 187.139 122.568 186.448 121.861L187.163 121.162C187.835 121.849 188.556 122.531 189.329 123.208L188.671 123.96ZM182.58 117.121C181.382 115.321 180.456 113.498 179.765 111.668L180.7 111.315C181.364 113.073 182.256 114.829 183.413 116.567L182.58 117.121ZM178.305 105.717C178.054 103.648 178.057 101.597 178.259 99.5869L179.254 99.6866C179.059 101.63 179.057 103.607 179.298 105.596L178.305 105.717ZM179.437 93.588C180.01 91.6049 180.739 89.6907 181.561 87.8711L182.472 88.2828C181.667 90.065 180.956 91.9342 180.398 93.8656L179.437 93.588ZM184.389 82.4818C185.503 80.6178 186.658 78.9166 187.759 77.4187L188.565 78.011C187.48 79.4871 186.343 81.1617 185.248 82.9945L184.389 82.4818ZM191.571 72.6927C192.199 71.9831 192.718 71.4305 193.08 71.0544C193.261 70.8664 193.403 70.7224 193.5 70.625C193.549 70.5763 193.587 70.5393 193.612 70.5141C193.625 70.5016 193.635 70.492 193.641 70.4855C193.645 70.4822 193.647 70.4796 193.649 70.4779C193.65 70.477 193.651 70.4763 193.651 70.4758C193.652 70.4756 193.652 70.4754 193.652 70.4752C193.652 70.4751 193.652 70.4751 193.652 70.475C193.652 70.475 193.652 70.475 193.652 70.475C193.652 70.4749 193.652 70.4749 194 70.8342C194.348 71.1935 194.348 71.1935 194.348 71.1935C194.348 71.1935 194.348 71.1935 194.348 71.1934C194.348 71.1934 194.348 71.1934 194.348 71.1935C194.348 71.1935 194.348 71.1936 194.347 71.1937C194.347 71.194 194.347 71.1944 194.346 71.1951C194.345 71.1964 194.343 71.1984 194.34 71.2012C194.334 71.2068 194.325 71.2154 194.313 71.227C194.29 71.2502 194.254 71.2852 194.208 71.3318C194.115 71.4251 193.977 71.5647 193.8 71.7481C193.447 72.1151 192.938 72.6574 192.32 73.3555L191.571 72.6927ZM184 176.334L184.695 177.053L184.69 177.058L184.685 177.063L184 176.334ZM193.305 70.1156C193.701 69.7315 194.334 69.7419 194.719 70.1388C195.103 70.5357 195.092 71.1687 194.695 71.5528L193.305 70.1156ZM1.00008 254.834C1.00553 253.834 1.00552 253.834 1.00551 253.834C1.00551 253.834 1.0055 253.834 1.00551 253.834C1.00552 253.834 1.00555 253.834 1.00559 253.834C1.00567 253.834 1.00583 253.834 1.00604 253.834C1.00648 253.834 1.00717 253.834 1.00813 253.834C1.01005 253.834 1.013 253.834 1.017 253.834C1.02499 253.834 1.03713 253.834 1.05337 253.834C1.08586 253.834 1.13474 253.834 1.19964 253.834C1.32943 253.834 1.52325 253.834 1.77794 253.833C2.28732 253.832 3.04016 253.827 4.01119 253.813L4.03828 255.813C3.06028 255.826 2.30079 255.832 1.7851 255.833C1.52726 255.834 1.33036 255.834 1.19756 255.834C1.13116 255.834 1.08079 255.834 1.04684 255.834C1.02986 255.834 1.017 255.834 1.00828 255.834C1.00392 255.834 1.0006 255.834 0.998327 255.834C0.997191 255.834 0.996311 255.834 0.995695 255.834C0.995393 255.834 0.995149 255.834 0.994975 255.834C0.994885 255.834 0.994813 255.834 0.994758 255.834C0.994731 255.834 0.994703 255.834 0.994686 255.834C0.99466 255.834 0.994641 255.834 1.00008 254.834ZM10.0987 253.674C11.9153 253.616 13.9637 253.539 16.2066 253.435L16.2997 255.433C14.0461 255.537 11.9875 255.615 10.1615 255.673L10.0987 253.674ZM22.2866 253.107C24.226 252.989 26.2599 252.851 28.3717 252.691L28.5229 254.685C26.4008 254.846 24.3572 254.984 22.4085 255.104L22.2866 253.107ZM34.4309 252.186C36.407 252.006 38.4317 251.806 40.4935 251.585L40.7069 253.573C38.6339 253.796 36.5985 253.997 34.6123 254.177L34.4309 252.186ZM46.5489 250.882C48.5392 250.634 50.5524 250.364 52.5793 250.072L52.8646 252.052C50.8246 252.346 48.7989 252.617 46.7968 252.867L46.5489 250.882ZM58.5979 249.141C60.5934 248.811 62.5928 248.458 64.5876 248.08L64.9602 250.045C62.9492 250.426 60.9343 250.782 58.9245 251.115L58.5979 249.141ZM70.5461 246.87C72.5367 246.437 74.5136 245.978 76.4678 245.491L76.9517 247.432C74.9764 247.924 72.9797 248.388 70.9706 248.824L70.5461 246.87ZM82.327 243.922C84.2979 243.355 86.2344 242.756 88.1267 242.123L88.761 244.02C86.8396 244.662 84.8758 245.27 82.8798 245.844L82.327 243.922ZM93.8157 240.061C94.7615 239.689 95.692 239.307 96.6058 238.915L97.3942 240.753C96.4609 241.153 95.5116 241.543 94.5477 241.922L93.8157 240.061ZM96.6058 238.915C97.497 238.532 98.3988 238.129 99.3099 237.706L100.152 239.52C99.2242 239.951 98.3046 240.362 97.3942 240.753L96.6058 238.915ZM104.647 235.064C106.372 234.161 108.12 233.2 109.886 232.19L110.879 233.926C109.094 234.947 107.324 235.92 105.575 236.836L104.647 235.064ZM115.026 229.141C116.705 228.112 118.394 227.046 120.085 225.95L121.173 227.629C119.468 228.733 117.766 229.808 116.071 230.846L115.026 229.141ZM125.078 222.637C126.723 221.522 128.365 220.384 130.001 219.23L131.154 220.864C129.509 222.025 127.856 223.17 126.201 224.292L125.078 222.637ZM134.869 215.735C136.486 214.554 138.092 213.363 139.682 212.167L140.884 213.766C139.287 214.967 137.674 216.164 136.048 217.35L134.869 215.735ZM144.453 208.529C146.051 207.294 147.627 206.06 149.174 204.835L150.416 206.403C148.863 207.633 147.281 208.871 145.676 210.111L144.453 208.529ZM153.854 201.086C155.444 199.799 156.995 198.529 158.5 197.284L159.774 198.826C158.264 200.074 156.708 201.349 155.113 202.641L153.854 201.086ZM163.102 193.44C164.693 192.098 166.216 190.799 167.661 189.556L168.965 191.073C167.515 192.32 165.987 193.622 164.391 194.969L163.102 193.44ZM172.198 185.618C173.849 184.17 175.348 182.84 176.673 181.656L178.006 183.146C176.677 184.335 175.173 185.669 173.516 187.121L172.198 185.618ZM181.127 177.627C181.837 176.977 182.385 176.471 182.755 176.128C182.94 175.956 183.08 175.825 183.174 175.737C183.221 175.693 183.257 175.66 183.28 175.638C183.292 175.627 183.301 175.619 183.307 175.613C183.31 175.611 183.312 175.608 183.313 175.607C183.314 175.606 183.314 175.606 183.315 175.606C183.315 175.606 183.315 175.605 183.315 175.605C183.315 175.605 183.315 175.605 183.315 175.605C183.315 175.605 183.315 175.605 183.315 175.605C183.315 175.605 183.315 175.605 184 176.334C184.685 177.063 184.685 177.063 184.685 177.063C184.685 177.063 184.685 177.063 184.685 177.063C184.685 177.063 184.685 177.063 184.684 177.063C184.684 177.063 184.684 177.063 184.684 177.063C184.684 177.064 184.683 177.064 184.682 177.065C184.681 177.067 184.678 177.069 184.675 177.072C184.669 177.078 184.66 177.086 184.648 177.098C184.623 177.12 184.587 177.154 184.539 177.199C184.444 177.288 184.302 177.42 184.115 177.593C183.742 177.94 183.191 178.449 182.478 179.102L181.127 177.627ZM184 176.334C183.305 175.615 183.304 175.615 183.304 175.616C183.304 175.616 183.304 175.616 183.304 175.616C183.304 175.616 183.304 175.616 183.304 175.616C183.304 175.616 183.304 175.616 183.304 175.616C183.305 175.615 183.305 175.615 183.305 175.615C183.306 175.613 183.308 175.612 183.311 175.609C183.316 175.604 183.325 175.596 183.336 175.585C183.358 175.563 183.393 175.529 183.438 175.483C183.529 175.392 183.665 175.254 183.84 175.073C184.189 174.711 184.693 174.174 185.306 173.481L186.803 174.807C186.17 175.522 185.647 176.08 185.28 176.461C185.097 176.651 184.952 176.797 184.853 176.897C184.803 176.946 184.765 176.984 184.738 177.011C184.725 177.024 184.715 177.034 184.708 177.041C184.704 177.044 184.701 177.047 184.699 177.049C184.698 177.05 184.697 177.051 184.697 177.051C184.696 177.052 184.696 177.052 184.696 177.052C184.696 177.052 184.696 177.052 184.696 177.052C184.696 177.052 184.695 177.053 184.695 177.053C184.695 177.053 184.695 177.053 184 176.334ZM189.032 168.861C190.109 167.396 191.237 165.735 192.323 163.917L194.04 164.943C192.917 166.822 191.753 168.537 190.643 170.046L189.032 168.861ZM195.072 158.679C195.869 156.916 196.571 155.069 197.121 153.164L199.043 153.719C198.462 155.728 197.725 157.665 196.895 159.503L195.072 158.679ZM198.249 147.432C198.44 145.521 198.442 143.581 198.206 141.632L200.191 141.391C200.447 143.5 200.443 145.588 200.239 147.631L198.249 147.432ZM196.832 136.03C196.182 134.307 195.307 132.585 194.171 130.878L195.836 129.77C197.054 131.601 197.998 133.457 198.703 135.324L196.832 136.03ZM190.48 126.356C189.817 125.678 189.105 125.005 188.341 124.337L189.658 122.831C190.46 123.533 191.209 124.241 191.91 124.957L190.48 126.356ZM188.341 124.337C187.54 123.636 186.791 122.927 186.09 122.211L187.52 120.812C188.183 121.49 188.895 122.163 189.658 122.831L188.341 124.337ZM182.164 117.398C180.946 115.567 180.001 113.711 179.297 111.845L181.168 111.138C181.818 112.861 182.693 114.583 183.829 116.29L182.164 117.398ZM177.809 105.777C177.553 103.668 177.556 101.58 177.761 99.537L179.751 99.7365C179.56 101.647 179.558 103.587 179.794 105.536L177.809 105.777ZM178.957 93.4492C179.537 91.4402 180.275 89.5035 181.105 87.6653L182.928 88.4887C182.131 90.2521 181.429 92.0989 180.878 94.0044L178.957 93.4492ZM183.96 82.2254C185.083 80.3458 186.247 78.6313 187.357 77.1225L188.968 78.3072C187.891 79.7724 186.763 81.4337 185.677 83.2509L183.96 82.2254ZM191.197 72.3612C191.83 71.646 192.353 71.0882 192.72 70.7075C192.903 70.5172 193.047 70.3711 193.147 70.2716C193.196 70.2219 193.235 70.1838 193.261 70.1577C193.275 70.1447 193.285 70.1346 193.292 70.1276C193.296 70.124 193.299 70.1213 193.301 70.1193C193.302 70.1183 193.303 70.1175 193.303 70.1169C193.304 70.1166 193.304 70.1163 193.304 70.1161C193.304 70.116 193.304 70.1159 193.304 70.1158C193.304 70.1158 193.304 70.1157 193.304 70.1157C193.304 70.1157 193.305 70.1156 194 70.8342C194.695 71.5528 194.695 71.5528 194.695 71.5527C194.695 71.5527 194.695 71.5527 194.695 71.5527C194.696 71.5526 194.696 71.5526 194.696 71.5526C194.696 71.5526 194.696 71.5526 194.695 71.5527C194.695 71.5528 194.695 71.5532 194.694 71.5537C194.693 71.5547 194.692 71.5565 194.689 71.5591C194.684 71.5642 194.675 71.5723 194.664 71.5834C194.642 71.6056 194.607 71.6396 194.562 71.6852C194.47 71.7764 194.335 71.9138 194.16 72.095C193.811 72.4574 193.307 72.9946 192.694 73.6869L191.197 72.3612Z" fill="black" fill-opacity="0.2"/>
<path d="M233 175.334L233.348 175.693L233.342 175.698L233 175.334ZM49.9974 254.334C49.7212 254.332 49.4986 254.107 49.5001 253.831C49.5016 253.555 49.7267 253.332 50.0028 253.334L49.9974 254.334ZM50.0001 253.834C50.0028 253.334 50.0028 253.334 50.0028 253.334C50.0028 253.334 50.0028 253.334 50.0028 253.334C50.0028 253.334 50.0029 253.334 50.0029 253.334C50.003 253.334 50.0032 253.334 50.0035 253.334C50.0039 253.334 50.0047 253.334 50.0057 253.334C50.0077 253.334 50.0107 253.334 50.0148 253.334C50.023 253.334 50.0353 253.334 50.0517 253.334C50.0846 253.334 50.1338 253.334 50.1991 253.334C50.3297 253.334 50.5243 253.334 50.7797 253.333C51.2907 253.332 52.0452 253.327 53.018 253.313L53.0315 254.313C52.0552 254.326 51.2974 254.332 50.7833 254.333C50.5263 254.334 50.3301 254.334 50.1981 254.334C50.1321 254.334 50.0821 254.334 50.0485 254.334C50.0317 254.334 50.019 254.334 50.0105 254.334C50.0062 254.334 50.003 254.334 50.0008 254.334C49.9997 254.334 49.9989 254.334 49.9983 254.334C49.998 254.334 49.9978 254.334 49.9976 254.334C49.9976 254.334 49.9975 254.334 49.9974 254.334C49.9974 254.334 49.9974 254.334 49.9974 254.334C49.9974 254.334 49.9974 254.334 50.0001 253.834ZM59.1144 253.173C60.9333 253.116 62.9843 253.039 65.2299 252.934L65.2764 253.933C63.0255 254.038 60.9695 254.115 59.1458 254.173L59.1144 253.173ZM71.3171 252.606C73.2588 252.488 75.2951 252.35 77.4095 252.19L77.4851 253.187C75.3656 253.347 73.3244 253.486 71.3781 253.604L71.3171 252.606ZM83.4763 251.684C85.4549 251.503 87.4822 251.304 89.5468 251.082L89.6536 252.076C87.5833 252.298 85.5507 252.499 83.567 252.68L83.4763 251.684ZM95.6109 250.378C97.6041 250.129 99.6205 249.86 101.651 249.567L101.793 250.557C99.7565 250.85 97.734 251.121 95.7348 251.371L95.6109 250.378ZM107.68 248.635C109.679 248.304 111.682 247.95 113.681 247.571L113.867 248.553C111.86 248.934 109.849 249.289 107.843 249.621L107.68 248.635ZM119.652 246.358C121.647 245.925 123.629 245.465 125.589 244.976L125.831 245.947C123.861 246.438 121.869 246.9 119.864 247.336L119.652 246.358ZM131.465 243.402C133.442 242.834 135.386 242.232 137.285 241.597L137.602 242.546C135.688 243.186 133.731 243.791 131.742 244.363L131.465 243.402ZM142.999 239.526C143.949 239.152 144.884 238.768 145.803 238.374L146.197 239.293C145.269 239.692 144.324 240.079 143.365 240.456L142.999 239.526ZM145.803 238.374C146.699 237.99 147.605 237.585 148.52 237.16L148.942 238.067C148.018 238.496 147.103 238.905 146.197 239.293L145.803 238.374ZM153.879 234.507C155.61 233.601 157.364 232.637 159.134 231.624L159.631 232.492C157.851 233.511 156.086 234.48 154.343 235.393L153.879 234.507ZM164.288 228.568C165.97 227.536 167.662 226.468 169.357 225.37L169.901 226.209C168.199 227.311 166.501 228.384 164.81 229.42L164.288 228.568ZM174.359 222.051C176.006 220.934 177.651 219.794 179.289 218.638L179.866 219.455C178.223 220.615 176.573 221.758 174.921 222.879L174.359 222.051ZM184.163 215.139C185.783 213.957 187.391 212.764 188.982 211.567L189.583 212.366C187.989 213.566 186.377 214.761 184.753 215.947L184.163 215.139ZM193.759 207.925C195.359 206.688 196.936 205.453 198.485 204.227L199.105 205.011C197.554 206.24 195.974 207.477 194.37 208.716L193.759 207.925ZM203.169 200.475C204.76 199.187 206.312 197.915 207.818 196.67L208.456 197.44C206.947 198.688 205.392 199.961 203.799 201.252L203.169 200.475ZM212.424 192.822C214.016 191.479 215.541 190.179 216.987 188.936L217.639 189.694C216.19 190.94 214.664 192.241 213.069 193.587L212.424 192.822ZM221.527 184.993C223.18 183.545 224.681 182.214 226.007 181.028L226.673 181.774C225.345 182.962 223.842 184.294 222.187 185.745L221.527 184.993ZM230.465 176.996C231.176 176.345 231.724 175.838 232.095 175.494C232.28 175.322 232.421 175.191 232.515 175.103C232.563 175.059 232.598 175.025 232.622 175.003C232.634 174.992 232.643 174.983 232.649 174.978C232.652 174.975 232.654 174.973 232.655 174.972C232.656 174.971 232.657 174.97 232.657 174.97C232.657 174.97 232.657 174.97 232.657 174.97C232.657 174.97 232.658 174.97 232.658 174.97C232.658 174.97 232.658 174.97 232.658 174.97C232.658 174.97 232.658 174.97 233 175.334C233.342 175.698 233.342 175.698 233.342 175.698C233.342 175.698 233.342 175.698 233.342 175.698C233.342 175.698 233.342 175.699 233.342 175.699C233.342 175.699 233.342 175.699 233.342 175.699C233.341 175.699 233.341 175.7 233.34 175.701C233.338 175.702 233.336 175.704 233.333 175.707C233.327 175.713 233.318 175.721 233.306 175.733C233.282 175.755 233.246 175.789 233.198 175.833C233.103 175.922 232.961 176.054 232.775 176.227C232.403 176.572 231.853 177.081 231.14 177.734L230.465 176.996ZM233 175.334C232.652 174.975 232.652 174.975 232.652 174.975C232.652 174.975 232.652 174.975 232.652 174.975C232.652 174.975 232.652 174.975 232.652 174.975C232.652 174.975 232.652 174.975 232.652 174.975C232.653 174.974 232.653 174.974 232.654 174.973C232.655 174.972 232.657 174.97 232.66 174.967C232.666 174.961 232.675 174.953 232.686 174.941C232.71 174.918 232.745 174.883 232.792 174.836C232.885 174.743 233.023 174.604 233.2 174.42C233.553 174.053 234.062 173.511 234.68 172.813L235.429 173.476C234.801 174.185 234.282 174.738 233.92 175.114C233.739 175.302 233.597 175.446 233.499 175.543C233.451 175.592 233.413 175.629 233.388 175.654C233.375 175.667 233.365 175.676 233.358 175.683C233.355 175.686 233.353 175.689 233.351 175.69C233.35 175.691 233.349 175.692 233.349 175.692C233.348 175.693 233.348 175.693 233.348 175.693C233.348 175.693 233.348 175.693 233.348 175.693C233.348 175.693 233.348 175.693 233.348 175.693C233.348 175.693 233.348 175.693 233 175.334ZM238.435 168.157C239.52 166.681 240.657 165.006 241.752 163.174L242.61 163.686C241.497 165.55 240.342 167.252 239.24 168.75L238.435 168.157ZM244.528 157.885C245.333 156.103 246.044 154.234 246.602 152.303L247.563 152.58C246.99 154.563 246.261 156.478 245.439 158.297L244.528 157.885ZM247.746 146.482C247.941 144.538 247.943 142.561 247.702 140.572L248.695 140.451C248.945 142.52 248.943 144.571 248.741 146.581L247.746 146.482ZM246.299 134.853C245.636 133.095 244.744 131.339 243.587 129.601L244.42 129.047C245.618 130.847 246.544 132.67 247.235 134.5L246.299 134.853ZM239.837 125.006C239.165 124.319 238.444 123.637 237.671 122.96L238.329 122.208C239.121 122.901 239.861 123.601 240.552 124.307L239.837 125.006ZM237.671 122.96C236.879 122.268 236.139 121.568 235.448 120.861L236.163 120.162C236.835 120.849 237.556 121.531 238.329 122.208L237.671 122.96ZM231.58 116.121C230.382 114.321 229.456 112.498 228.765 110.668L229.7 110.315C230.364 112.073 231.256 113.829 232.413 115.567L231.58 116.121ZM227.305 104.717C227.054 102.648 227.057 100.597 227.259 98.5869L228.254 98.6866C228.059 100.63 228.057 102.607 228.298 104.596L227.305 104.717ZM228.437 92.588C229.01 90.6049 229.739 88.6907 230.561 86.8711L231.472 87.2828C230.667 89.065 229.956 90.9342 229.398 92.8656L228.437 92.588ZM233.389 81.4818C234.503 79.6178 235.658 77.9166 236.759 76.4187L237.565 77.011C236.48 78.4871 235.343 80.1617 234.248 81.9945L233.389 81.4818ZM240.571 71.6927C241.199 70.9831 241.718 70.4305 242.08 70.0544C242.261 69.8664 242.403 69.7224 242.5 69.625C242.549 69.5763 242.587 69.5393 242.612 69.5141C242.625 69.5016 242.635 69.492 242.641 69.4855C242.645 69.4822 242.647 69.4796 242.649 69.4779C242.65 69.477 242.651 69.4763 242.651 69.4758C242.652 69.4756 242.652 69.4754 242.652 69.4752C242.652 69.4751 242.652 69.4751 242.652 69.475C242.652 69.475 242.652 69.475 242.652 69.475C242.652 69.4749 242.652 69.4749 243 69.8342C243.348 70.1935 243.348 70.1935 243.348 70.1935C243.348 70.1935 243.348 70.1935 243.348 70.1934C243.348 70.1934 243.348 70.1934 243.348 70.1935C243.348 70.1935 243.348 70.1936 243.347 70.1937C243.347 70.194 243.347 70.1944 243.346 70.1951C243.345 70.1964 243.343 70.1984 243.34 70.2012C243.334 70.2068 243.325 70.2154 243.313 70.227C243.29 70.2502 243.254 70.2852 243.208 70.3318C243.115 70.4251 242.977 70.5647 242.8 70.7481C242.447 71.1151 241.938 71.6574 241.32 72.3555L240.571 71.6927ZM233 175.334L233.695 176.053L233.69 176.058L233.685 176.063L233 175.334ZM49.9946 254.834C49.4424 254.831 48.9971 254.381 49.0001 253.828C49.0031 253.276 49.4532 252.831 50.0055 252.834L49.9946 254.834ZM50.0001 253.834C50.0055 252.834 50.0055 252.834 50.0055 252.834C50.0055 252.834 50.0055 252.834 50.0055 252.834C50.0055 252.834 50.0055 252.834 50.0056 252.834C50.0057 252.834 50.0058 252.834 50.006 252.834C50.0065 252.834 50.0072 252.834 50.0081 252.834C50.01 252.834 50.013 252.834 50.017 252.834C50.025 252.834 50.0371 252.834 50.0534 252.834C50.0859 252.834 50.1347 252.834 50.1996 252.834C50.3294 252.834 50.5232 252.834 50.7779 252.833C51.2873 252.832 52.0402 252.827 53.0112 252.813L53.0383 254.813C52.0603 254.826 51.3008 254.832 50.7851 254.833C50.5273 254.834 50.3304 254.834 50.1976 254.834C50.1312 254.834 50.0808 254.834 50.0468 254.834C50.0299 254.834 50.017 254.834 50.0083 254.834C50.0039 254.834 50.0006 254.834 49.9983 254.834C49.9972 254.834 49.9963 254.834 49.9957 254.834C49.9954 254.834 49.9951 254.834 49.995 254.834C49.9949 254.834 49.9948 254.834 49.9948 254.834C49.9947 254.834 49.9947 254.834 49.9947 254.834C49.9947 254.834 49.9946 254.834 50.0001 253.834ZM59.0987 252.674C60.9153 252.616 62.9637 252.539 65.2066 252.435L65.2997 254.433C63.0461 254.537 60.9875 254.615 59.1615 254.673L59.0987 252.674ZM71.2866 252.107C73.226 251.989 75.2599 251.851 77.3717 251.691L77.5229 253.685C75.4008 253.846 73.3572 253.984 71.4085 254.104L71.2866 252.107ZM83.4309 251.186C85.407 251.006 87.4317 250.806 89.4935 250.585L89.7069 252.573C87.6339 252.796 85.5985 252.997 83.6123 253.177L83.4309 251.186ZM95.5489 249.882C97.5392 249.634 99.5524 249.364 101.579 249.072L101.865 251.052C99.8246 251.346 97.7989 251.617 95.7968 251.867L95.5489 249.882ZM107.598 248.141C109.593 247.811 111.593 247.458 113.588 247.08L113.96 249.045C111.949 249.426 109.934 249.782 107.925 250.115L107.598 248.141ZM119.546 245.87C121.537 245.437 123.514 244.978 125.468 244.491L125.952 246.432C123.976 246.924 121.98 247.388 119.971 247.824L119.546 245.87ZM131.327 242.922C133.298 242.355 135.234 241.756 137.127 241.123L137.761 243.02C135.84 243.662 133.876 244.27 131.88 244.844L131.327 242.922ZM142.816 239.061C143.762 238.689 144.692 238.307 145.606 237.915L146.394 239.753C145.461 240.153 144.512 240.543 143.548 240.922L142.816 239.061ZM145.606 237.915C146.497 237.532 147.399 237.129 148.31 236.706L149.152 238.52C148.224 238.951 147.305 239.362 146.394 239.753L145.606 237.915ZM153.647 234.064C155.372 233.161 157.12 232.2 158.886 231.19L159.879 232.926C158.094 233.947 156.324 234.92 154.575 235.836L153.647 234.064ZM164.026 228.141C165.705 227.112 167.394 226.046 169.085 224.95L170.173 226.629C168.468 227.733 166.766 228.808 165.071 229.846L164.026 228.141ZM174.078 221.637C175.723 220.522 177.365 219.384 179.001 218.23L180.154 219.864C178.509 221.025 176.856 222.17 175.201 223.292L174.078 221.637ZM183.869 214.735C185.486 213.554 187.092 212.363 188.682 211.167L189.884 212.766C188.287 213.967 186.674 215.164 185.048 216.35L183.869 214.735ZM193.453 207.529C195.051 206.294 196.627 205.06 198.174 203.835L199.416 205.403C197.863 206.633 196.281 207.871 194.676 209.111L193.453 207.529ZM202.854 200.086C204.444 198.799 205.995 197.529 207.5 196.284L208.774 197.826C207.264 199.074 205.708 200.349 204.113 201.641L202.854 200.086ZM212.102 192.44C213.693 191.098 215.216 189.799 216.661 188.556L217.965 190.073C216.515 191.32 214.987 192.622 213.391 193.969L212.102 192.44ZM221.198 184.618C222.849 183.17 224.348 181.84 225.673 180.656L227.006 182.146C225.677 183.335 224.173 184.669 222.516 186.121L221.198 184.618ZM230.127 176.627C230.837 175.977 231.385 175.471 231.755 175.128C231.94 174.956 232.08 174.825 232.174 174.737C232.221 174.693 232.257 174.66 232.28 174.638C232.292 174.627 232.301 174.619 232.307 174.613C232.31 174.611 232.312 174.608 232.313 174.607C232.314 174.606 232.314 174.606 232.315 174.606C232.315 174.606 232.315 174.605 232.315 174.605C232.315 174.605 232.315 174.605 232.315 174.605C232.315 174.605 232.315 174.605 232.315 174.605C232.315 174.605 232.315 174.605 233 175.334C233.685 176.063 233.685 176.063 233.685 176.063C233.685 176.063 233.685 176.063 233.685 176.063C233.685 176.063 233.685 176.063 233.684 176.063C233.684 176.063 233.684 176.063 233.684 176.063C233.684 176.064 233.683 176.064 233.682 176.065C233.681 176.067 233.678 176.069 233.675 176.072C233.669 176.078 233.66 176.086 233.648 176.098C233.623 176.12 233.587 176.154 233.539 176.199C233.444 176.288 233.302 176.42 233.115 176.593C232.742 176.94 232.191 177.449 231.478 178.102L230.127 176.627ZM233 175.334C232.305 174.615 232.304 174.615 232.304 174.616C232.304 174.616 232.304 174.616 232.304 174.616C232.304 174.616 232.304 174.616 232.304 174.616C232.304 174.616 232.304 174.616 232.304 174.616C232.305 174.615 232.305 174.615 232.305 174.615C232.306 174.613 232.308 174.612 232.311 174.609C232.316 174.604 232.325 174.596 232.336 174.585C232.358 174.563 232.393 174.529 232.438 174.483C232.529 174.392 232.665 174.254 232.84 174.073C233.189 173.711 233.693 173.174 234.306 172.481L235.803 173.807C235.17 174.522 234.647 175.08 234.28 175.461C234.097 175.651 233.952 175.797 233.853 175.897C233.803 175.946 233.765 175.984 233.738 176.011C233.725 176.024 233.715 176.034 233.708 176.041C233.704 176.044 233.701 176.047 233.699 176.049C233.698 176.05 233.697 176.051 233.697 176.051C233.696 176.052 233.696 176.052 233.696 176.052C233.696 176.052 233.696 176.052 233.696 176.052C233.696 176.052 233.695 176.053 233.695 176.053C233.695 176.053 233.695 176.053 233 175.334ZM238.032 167.861C239.109 166.396 240.237 164.735 241.323 162.917L243.04 163.943C241.917 165.822 240.753 167.537 239.643 169.046L238.032 167.861ZM244.072 157.679C244.869 155.916 245.571 154.069 246.121 152.164L248.043 152.719C247.462 154.728 246.725 156.665 245.895 158.503L244.072 157.679ZM247.249 146.432C247.44 144.521 247.442 142.581 247.206 140.632L249.191 140.391C249.447 142.5 249.443 144.588 249.239 146.631L247.249 146.432ZM245.832 135.03C245.182 133.307 244.307 131.585 243.171 129.878L244.836 128.77C246.054 130.601 246.998 132.457 247.703 134.324L245.832 135.03ZM239.48 125.356C238.817 124.678 238.105 124.005 237.341 123.337L238.658 121.831C239.46 122.533 240.209 123.241 240.91 123.957L239.48 125.356ZM237.341 123.337C236.54 122.636 235.791 121.927 235.09 121.211L236.52 119.812C237.183 120.49 237.895 121.163 238.658 121.831L237.341 123.337ZM231.164 116.398C229.946 114.567 229.001 112.711 228.297 110.845L230.168 110.138C230.818 111.861 231.693 113.583 232.829 115.29L231.164 116.398ZM226.809 104.777C226.553 102.668 226.556 100.58 226.761 98.537L228.751 98.7365C228.56 100.647 228.558 102.587 228.794 104.536L226.809 104.777ZM227.957 92.4492C228.537 90.4402 229.275 88.5035 230.105 86.6653L231.928 87.4887C231.131 89.2521 230.429 91.0989 229.878 93.0044L227.957 92.4492ZM232.96 81.2254C234.083 79.3458 235.247 77.6313 236.357 76.1225L237.968 77.3072C236.891 78.7724 235.763 80.4337 234.677 82.2509L232.96 81.2254ZM240.197 71.3612C240.83 70.646 241.353 70.0882 241.72 69.7075C241.903 69.5172 242.047 69.3711 242.147 69.2716C242.196 69.2219 242.235 69.1838 242.261 69.1577C242.275 69.1447 242.285 69.1346 242.292 69.1276C242.296 69.124 242.299 69.1213 242.301 69.1193C242.302 69.1183 242.303 69.1175 242.303 69.1169C242.304 69.1166 242.304 69.1163 242.304 69.1161C242.304 69.116 242.304 69.1159 242.304 69.1158C242.304 69.1158 242.304 69.1157 242.304 69.1157C242.304 69.1157 242.305 69.1156 243 69.8342C243.695 70.5528 243.695 70.5528 243.695 70.5527C243.695 70.5527 243.695 70.5527 243.695 70.5527C243.696 70.5526 243.696 70.5526 243.696 70.5526C243.696 70.5526 243.696 70.5526 243.695 70.5527C243.695 70.5528 243.695 70.5532 243.694 70.5537C243.693 70.5547 243.692 70.5565 243.689 70.5591C243.684 70.5642 243.675 70.5723 243.664 70.5834C243.642 70.6056 243.607 70.6396 243.562 70.6852C243.47 70.7764 243.335 70.9138 243.16 71.095C242.811 71.4574 242.307 71.9946 241.694 72.6869L240.197 71.3612Z" fill="black" fill-opacity="0.2"/>
</svg>
