<svg width="137" height="40" viewBox="0 0 137 40" fill="none" xmlns="http://www.w3.org/2000/svg">
<g clip-path="url(#clip0_174_182)">
<path d="M38.3995 11.6776H44.7513C48.8008 11.6776 52.1459 14.0206 52.1459 19.3701V20.4942C52.1459 25.8845 49.0174 28.3087 44.8732 28.3087H38.3995V11.6776ZM41.9479 14.6977V25.275H44.6701C46.9724 25.275 48.5163 23.7717 48.5163 20.4265V19.5462C48.5163 16.201 46.8912 14.6977 44.5482 14.6977H41.9479ZM54.0285 14.8602H56.8725L57.333 17.9887C57.8747 15.8624 59.2561 14.7248 61.7617 14.7248H62.642V18.3138H61.1793C58.2946 18.3138 57.5903 19.316 57.5903 22.1601V28.3493H54.0826V14.8602H54.0285ZM63.3462 21.8756V21.4964C63.3462 16.9865 66.2309 14.5217 70.1585 14.5217C74.1673 14.5217 76.9707 16.9865 76.9707 21.4964V21.8756C76.9707 26.3043 74.2485 28.6879 70.1585 28.6879C65.8111 28.6473 63.3462 26.3178 63.3462 21.8756ZM73.3818 21.835V21.4964C73.3818 18.9909 72.1222 17.4876 70.1178 17.4876C68.1541 17.4876 66.8539 18.869 66.8539 21.4964V21.835C66.8539 24.2593 68.1134 25.6407 70.1178 25.6407C72.1222 25.6 73.3818 24.2593 73.3818 21.835ZM78.8126 14.8602H81.738L82.0765 17.4064C82.7808 15.6999 84.2841 14.5217 86.5052 14.5217C89.9316 14.5217 92.1934 16.9865 92.1934 21.5506V21.9298C92.1934 26.3585 89.6879 28.7014 86.5052 28.7014C84.3789 28.7014 82.9162 27.7399 82.1984 26.1959V33.0082H78.772L78.8126 14.8602ZM88.6315 21.835V21.5371C88.6315 18.8555 87.2501 17.5283 85.4082 17.5283C83.4444 17.5283 82.1442 19.0316 82.1442 21.5371V21.7944C82.1442 24.178 83.4038 25.6813 85.3675 25.6813C87.3855 25.6407 88.6315 24.3541 88.6315 21.835ZM97.3804 25.8574L97.0825 28.3222H94.0759V10.3503H97.5023V17.2439C98.2607 15.4832 99.764 14.5217 101.89 14.5217C105.114 14.5623 107.497 16.7834 107.497 21.2527V21.6725C107.497 26.1418 105.236 28.7014 101.809 28.7014C99.5473 28.6473 98.0847 27.6044 97.3804 25.8574ZM103.895 21.6725V21.3339C103.895 18.869 102.554 17.4876 100.671 17.4876C98.7483 17.4876 97.4075 19.0316 97.4075 21.3745V21.6725C97.4075 24.178 98.7077 25.6407 100.631 25.6407C102.689 25.6407 103.895 24.3541 103.895 21.6725ZM109.001 21.8756V21.4964C109.001 16.9865 111.885 14.5217 115.813 14.5217C119.822 14.5217 122.625 16.9865 122.625 21.4964V21.8756C122.625 26.3043 119.862 28.6879 115.813 28.6879C111.465 28.6473 109.001 26.3178 109.001 21.8756ZM119.063 21.835V21.4964C119.063 18.9909 117.804 17.4876 115.799 17.4876C113.835 17.4876 112.535 18.869 112.535 21.4964V21.835C112.535 24.2593 113.795 25.6407 115.799 25.6407C117.817 25.6 119.063 24.2593 119.063 21.835ZM127.216 21.3339L122.49 14.8602H126.539L129.261 18.9097L132.024 14.8602H136.033L131.239 21.2933L136.29 28.3222H132.322L129.234 23.853L126.228 28.3222H122.083L127.216 21.3339Z" fill="black"/>
<path d="M16.5678 11.6777L8.71275 16.6887L16.5678 21.6997L8.71275 26.7107L0.857666 21.6726L8.71275 16.6616L0.857666 11.6777L8.71275 6.66669L16.5678 11.6777ZM8.67212 28.3223L16.5272 23.3113L24.3823 28.3223L16.5272 33.3334L8.67212 28.3223ZM16.5678 21.6726L24.4229 16.6616L16.5678 11.6777L24.3823 6.66669L32.2374 11.6777L24.3823 16.6887L32.2374 21.6997L24.3823 26.7107L16.5678 21.6726Z" fill="#0061FF"/>
</g>
<defs>
<clipPath id="clip0_174_182">
<rect width="135.833" height="40" fill="white" transform="translate(0.857666)"/>
</clipPath>
</defs>
</svg>
