<svg width="117" height="40" viewBox="0 0 117 40" fill="none" xmlns="http://www.w3.org/2000/svg">
<g clip-path="url(#clip0_174_181)">
<path d="M17.7514 2.56592C8.08646 2.56592 0.251099 10.4011 0.251099 20.066C0.251099 29.7314 8.08646 37.5659 17.7514 37.5659C27.4174 37.5659 35.2519 29.7314 35.2519 20.066C35.2519 10.4017 27.4174 2.56675 17.7512 2.56675L17.7514 2.56592ZM25.777 27.8061C25.4635 28.3202 24.7906 28.4832 24.2765 28.1676C20.1676 25.6578 14.995 25.0894 8.90335 26.4812C8.31634 26.6149 7.7312 26.2471 7.59746 25.6599C7.46309 25.0727 7.82942 24.4875 8.4179 24.3538C15.0843 22.8308 20.8025 23.4865 25.4154 26.3056C25.9295 26.6212 26.0925 27.292 25.777 27.8061ZM27.919 23.041C27.524 23.683 26.6839 23.8857 26.0424 23.4907C21.3383 20.5993 14.1677 19.762 8.60368 21.4509C7.88209 21.6689 7.11995 21.2622 6.90094 20.5419C6.6836 19.8203 7.09048 19.0596 7.81082 18.8402C14.1664 16.9117 22.0676 17.8459 27.4697 21.1654C28.1112 21.5604 28.3139 22.4005 27.919 23.0412V23.041ZM28.1029 18.0791C22.4626 14.729 13.1569 14.4209 7.77175 16.0553C6.907 16.3176 5.99252 15.8294 5.73046 14.9647C5.46841 14.0995 5.95616 13.1857 6.82153 12.9228C13.0033 11.0462 23.2797 11.4088 29.7734 15.2637C30.5529 15.7254 30.8079 16.7299 30.346 17.5067C29.8863 18.2845 28.879 18.5409 28.1037 18.0791H28.1029ZM47.8637 18.7211C44.8419 18.0005 44.3048 17.4948 44.3048 16.4321C44.3048 15.4282 45.2494 14.7526 46.6558 14.7526C48.0183 14.7526 49.3683 15.2656 50.7852 16.3218C50.827 16.3538 50.8813 16.3665 50.9335 16.3582C50.9879 16.3502 51.0339 16.3212 51.0652 16.2775L52.5406 14.1978C52.6012 14.1121 52.5845 13.994 52.503 13.9286C50.8165 12.5759 48.919 11.9182 46.6997 11.9182C43.4376 11.9182 41.1576 13.8761 41.1576 16.6775C41.1576 19.6815 43.1241 20.7452 46.522 21.5663C49.4122 22.2323 49.9012 22.7902 49.9012 23.7875C49.9012 24.893 48.9148 25.5805 47.3266 25.5805C45.5628 25.5805 44.123 24.9849 42.5139 23.5931C42.4742 23.5576 42.4198 23.543 42.3697 23.5451C42.3154 23.5492 42.2673 23.5743 42.2338 23.614L40.5788 25.5826C40.5098 25.6662 40.5182 25.7874 40.5976 25.8584C42.47 27.5302 44.7729 28.4121 47.2597 28.4121C50.7747 28.4121 53.0463 26.4916 53.0463 23.5179C53.0526 21.0087 51.55 19.619 47.8699 18.7238L47.8637 18.7211ZM60.9999 15.741C59.4765 15.741 58.2268 16.3412 57.1945 17.5711V16.1868C57.1945 16.0775 57.1067 15.9885 56.998 15.9885H54.2918C54.1831 15.9885 54.0954 16.0775 54.0954 16.1868V31.5677C54.0954 31.6763 54.1831 31.7662 54.2918 31.7662H56.998C57.1067 31.7662 57.1945 31.6763 57.1945 31.5677V26.7131C58.2268 27.8688 59.4765 28.4351 60.9999 28.4351C63.8316 28.4351 66.6987 26.2555 66.6987 22.0887C66.7029 17.9211 63.8358 15.7408 61.002 15.7408L60.9999 15.741ZM63.5515 22.0887C63.5515 24.2096 62.2454 25.6912 60.373 25.6912C58.5236 25.6912 57.1276 24.1427 57.1276 22.0887C57.1276 20.0345 58.5236 18.4864 60.373 18.4864C62.2141 18.4862 63.5515 20.0008 63.5515 22.0885V22.0887ZM74.0443 15.741C70.3976 15.741 67.5409 18.5489 67.5409 22.1341C67.5409 25.6808 70.3788 28.4581 74.0004 28.4581C77.6596 28.4581 80.5246 25.6599 80.5246 22.0887C80.5246 18.5296 77.6784 15.7415 74.0443 15.7415V15.741ZM74.0443 25.7121C72.105 25.7121 70.6421 24.1532 70.6421 22.0877C70.6421 20.0127 72.0548 18.5071 74.0004 18.5071C75.9522 18.5071 77.4234 20.0654 77.4234 22.133C77.4234 24.2075 76.0024 25.7121 74.0443 25.7121ZM88.3111 15.9885H85.3332V12.9445C85.3332 12.8354 85.2454 12.7464 85.1367 12.7464H82.4305C82.3218 12.7464 82.232 12.8354 82.232 12.9445V15.9885H80.9321C80.8235 15.9885 80.7357 16.0775 80.7357 16.1868V18.5121C80.7357 18.6212 80.8235 18.7104 80.9321 18.7104H82.232V24.7279C82.232 27.1583 83.4419 28.3912 85.8305 28.3912C86.8002 28.3912 87.6047 28.1906 88.3633 27.7601C88.426 27.7267 88.4636 27.6598 88.4636 27.5888V25.3736C88.4636 25.3067 88.4281 25.2419 88.3696 25.2064C88.3111 25.1688 88.2379 25.1667 88.1773 25.1981C87.657 25.4593 87.1534 25.5805 86.5891 25.5805C85.7219 25.5805 85.3332 25.1855 85.3332 24.3036V18.7114H88.3111C88.4198 18.7114 88.5075 18.6224 88.5075 18.5131V16.188C88.5117 16.0788 88.4239 15.9897 88.3132 15.9897L88.3111 15.9885ZM98.6847 16.0004V15.6265C98.6847 14.5267 99.1068 14.0362 100.051 14.0362C100.616 14.0362 101.069 14.1482 101.577 14.3175C101.64 14.3371 101.704 14.3273 101.755 14.2899C101.807 14.2525 101.836 14.1925 101.836 14.129V11.8491C101.836 11.7619 101.782 11.6848 101.696 11.6591C101.161 11.4997 100.476 11.336 99.4474 11.336C96.9502 11.336 95.6273 12.7433 95.6273 15.4042V15.9768H94.3275C94.2188 15.9768 94.129 16.0658 94.129 16.1749V18.5121C94.129 18.6212 94.2188 18.7104 94.3275 18.7104H95.6273V27.99C95.6273 28.1007 95.7172 28.1885 95.8259 28.1885H98.53C98.6408 28.1885 98.7286 28.1007 98.7286 27.99V18.711H101.255L105.125 27.99C104.686 28.9638 104.254 29.1582 103.665 29.1582C103.188 29.1582 102.684 29.0161 102.172 28.7339C102.124 28.7089 102.066 28.7047 102.016 28.7193C101.964 28.7381 101.92 28.7757 101.899 28.8259L100.981 30.8383C100.937 30.9345 100.975 31.0452 101.067 31.0954C102.024 31.6136 102.887 31.8352 103.955 31.8352C105.953 31.8352 107.058 30.9031 108.03 28.3996L112.724 16.2712C112.749 16.2102 112.74 16.1412 112.703 16.0871C112.667 16.0334 112.607 16.001 112.542 16.001H109.725C109.639 16.001 109.564 16.0547 109.537 16.1339L106.651 24.3747L103.491 16.1285C103.462 16.0518 103.389 16.001 103.307 16.001H98.6847V16.0004ZM92.6703 15.9885H89.9641C89.8554 15.9885 89.7656 16.0775 89.7656 16.1868V27.99C89.7656 28.1007 89.8554 28.1885 89.9641 28.1885H92.6703C92.779 28.1885 92.8689 28.1007 92.8689 27.99V16.1876C92.8689 16.0783 92.7811 15.9893 92.6703 15.9893V15.9885ZM91.3329 10.6138C90.2608 10.6138 89.3915 11.4815 89.3915 12.5533C89.3915 13.6258 90.2608 14.4945 91.3329 14.4945C92.4049 14.4945 93.2722 13.6258 93.2722 12.5533C93.2722 11.4817 92.4028 10.6138 91.3329 10.6138ZM115.035 19.7837C113.965 19.7837 113.131 18.9238 113.131 17.8795C113.131 16.8352 113.975 15.9655 115.045 15.9655C116.115 15.9655 116.949 16.8252 116.949 17.8686C116.949 18.9129 116.105 19.7837 115.035 19.7837ZM115.045 16.1548C114.07 16.1548 113.332 16.9301 113.332 17.8795C113.332 18.8285 114.065 19.5933 115.035 19.5933C116.011 19.5933 116.749 18.8186 116.749 17.8686C116.749 16.9197 116.015 16.1548 115.045 16.1548ZM115.468 18.0644L116.007 18.8184H115.551L115.066 18.1267H114.65V18.8184H114.27V16.8198H115.16C115.626 16.8198 115.932 17.0574 115.932 17.4574C115.934 17.785 115.743 17.9852 115.47 18.0644H115.468ZM115.146 17.1627H114.65V17.7949H115.146C115.392 17.7949 115.541 17.6739 115.541 17.4785C115.541 17.2728 115.392 17.1627 115.146 17.1627Z" fill="#1ED760"/>
</g>
<defs>
<clipPath id="clip0_174_181">
<rect width="116.667" height="40" fill="white" transform="translate(0.190918)"/>
</clipPath>
</defs>
</svg>
