<svg width="124" height="42" viewBox="0 0 124 42" fill="none" xmlns="http://www.w3.org/2000/svg">
<path d="M52.5386 15.2864H57.2078L50.5726 31.9972H46.3949L39.6368 15.2864H44.4289L48.4838 26.4679L52.5386 15.2864ZM58.6823 31.8743H63.2286V15.2864H58.6823V31.8743ZM65.3175 26.4679H69.8638C69.9867 27.5737 70.7239 28.6796 72.6899 28.6796C74.4102 28.6796 75.2703 28.0652 75.2703 27.2051C75.2703 24.379 66.0547 27.0823 66.0547 20.4471C66.0547 17.3752 68.6351 14.9177 72.6899 14.9177C77.7278 14.9177 79.448 18.1125 79.5709 20.5699H75.2703C75.1474 19.4641 74.4102 18.604 72.8128 18.604C71.3383 18.604 70.4782 19.3412 70.4782 20.2013C70.4782 23.0274 79.6937 20.2013 79.6937 27.0823C79.6937 30.0312 77.1134 32.3658 72.6899 32.3658C67.4063 32.243 65.5632 29.6626 65.3175 26.4679ZM81.9055 31.8743H86.4518V15.2864H81.9055V31.8743ZM97.1418 28.311C99.4764 28.311 101.32 26.5908 101.32 23.5189C101.32 20.5699 99.4764 18.7268 97.1418 18.7268C94.8072 18.7268 92.9641 20.4471 92.9641 23.5189C92.9641 26.5908 94.8072 28.311 97.1418 28.311ZM88.4178 23.5189C88.4178 18.7268 91.8583 14.7949 97.1418 14.7949C102.425 14.7949 105.866 18.7268 105.866 23.5189C105.866 28.311 102.425 32.243 97.1418 32.243C91.8583 32.243 88.4178 28.311 88.4178 23.5189ZM112.132 17.2523C112.87 15.7779 114.59 14.7949 117.047 14.7949C121.102 14.7949 123.191 17.4981 123.191 21.4301V31.8743H118.645V21.9215C118.645 19.9556 117.785 18.604 115.819 18.604C113.607 18.604 112.378 19.9556 112.378 22.2902V31.8743H107.832V15.2864H112.132V17.2523Z" fill="#FF3366"/>
<path d="M0.317139 41.95H42.2171V0.0499878H0.317139V41.95Z" fill="#FF3366"/>
<path d="M15.062 13.1977C16.4136 13.1977 17.5195 12.2147 17.5195 10.7403C17.5195 9.38864 16.4136 8.28278 15.062 8.28278C13.7104 8.28278 12.6046 9.26577 12.6046 10.7403C12.6046 12.2147 13.7104 13.1977 15.062 13.1977ZM9.90133 26.2224C9.77845 26.8367 9.65558 27.4511 9.65558 28.0655C9.65558 30.1543 10.7614 31.6288 13.2189 31.6288C15.3078 31.6288 16.9051 30.4001 18.1339 28.4341L17.3966 31.3831H21.4515L23.7861 22.1675C24.4004 19.8329 25.5063 18.6042 27.2265 18.6042C28.5782 18.6042 29.4383 19.4643 29.4383 20.8159C29.4383 21.1845 29.4383 21.676 29.3154 22.1675L28.0867 26.4681C27.9638 27.0825 27.8409 27.6969 27.8409 28.3112C27.8409 30.2772 29.0697 31.7517 31.5271 31.7517C33.616 31.7517 35.3362 30.4001 36.3192 27.0825L34.7219 26.4681C33.9846 28.6798 33.2474 29.0485 32.7559 29.0485C32.2644 29.0485 31.8958 28.6798 31.8958 27.9426C31.8958 27.574 32.0186 27.2054 32.0186 26.8367L33.1245 22.659C33.3702 21.676 33.4931 20.8159 33.4931 20.0787C33.4931 17.0068 31.65 15.4095 29.3154 15.4095C27.2265 15.4095 25.0148 17.3754 23.909 19.3414L24.6462 15.7781H18.5025L17.6424 18.9728H20.4685L18.7482 25.7309C17.3966 28.8027 14.8163 28.9256 14.4477 28.8027C13.9562 28.6798 13.5875 28.4341 13.5875 27.8197C13.5875 27.4511 13.7104 26.8367 13.8333 26.2224L16.5365 15.5323H9.77845L8.91833 18.7271H11.7444L9.90133 26.2224Z" fill="white"/>
</svg>
