<svg width="111" height="34" viewBox="0 0 111 34" fill="none" xmlns="http://www.w3.org/2000/svg">
<path d="M33.9349 15.2825H23.8844L32.5882 10.2833L30.8622 7.30789L22.1572 12.3071L27.1814 3.64874L24.1911 1.93129L19.1658 10.5875V0.591248H15.7115V10.5885L10.6862 1.93129L7.69481 3.64874L12.719 12.3049L4.01626 7.30789L2.28913 10.2833L10.993 15.2825H0.942383V18.7185H10.9919L2.28913 23.7177L4.01516 26.6932L12.7201 21.694L7.69481 30.3523L10.6851 32.0698L15.7115 23.4125V33.4087H19.1658V23.1981L24.2834 32.0151L27.088 30.4048L21.9692 21.5857L30.86 26.6921L32.5871 23.7166L23.8844 18.7174H33.9338V15.2825H33.9349ZM17.4387 21.671C16.822 21.6711 16.2114 21.5503 15.6417 21.3156C15.072 21.0808 14.5544 20.7368 14.1183 20.303C13.6822 19.8692 13.3363 19.3542 13.1003 18.7873C12.8642 18.2205 12.7427 17.613 12.7426 16.9994C12.7426 16.3859 12.8639 15.7783 13.0998 15.2115C13.3357 14.6446 13.6816 14.1295 14.1175 13.6956C14.5535 13.2617 15.0711 12.9175 15.6407 12.6826C16.2104 12.4478 16.8209 12.3268 17.4376 12.3268C18.6829 12.3266 19.8772 12.8187 20.7579 13.6948C21.6386 14.5709 22.1334 15.7592 22.1336 16.9983C22.1337 18.2375 21.6392 19.4259 20.7587 20.3022C19.8782 21.1785 18.684 21.6709 17.4387 21.671Z" fill="#625DF5"/>
<path d="M42.839 29.0033V4.99628H47.2673V29.0033H42.839ZM85.3115 12.6887H89.5398V14.6796C90.4391 13.088 92.5378 12.2249 94.3353 12.2249C96.5671 12.2249 98.3646 13.1875 99.1968 14.9433C100.494 12.9523 102.227 12.2249 104.391 12.2249C107.421 12.2249 110.317 14.0484 110.317 18.4252V29.0033H106.023V19.3211C106.023 17.5632 105.157 16.2363 103.125 16.2363C101.226 16.2363 100.094 17.6966 100.094 19.4546V29.0044H95.7007V19.3211C95.7007 17.5632 94.8014 16.2363 92.8028 16.2363C90.8711 16.2363 89.7388 17.6638 89.7388 19.4546V29.0044H85.3115V12.6887ZM57.275 29.4759C52.286 29.4759 48.6734 25.7927 48.6734 20.846C48.6734 15.9781 52.275 12.2085 57.275 12.2085C62.2992 12.2085 65.8766 16.0131 65.8766 20.846C65.8766 25.7577 62.2618 29.4759 57.275 29.4759ZM57.275 16.2013C56.0375 16.203 54.8513 16.6931 53.9766 17.5641C53.1018 18.4351 52.6101 19.6158 52.6092 20.8471C52.6101 22.0784 53.1018 23.2591 53.9766 24.1301C54.8513 25.0011 56.0375 25.4912 57.275 25.493C58.5123 25.4909 59.6983 25.0007 60.5728 24.1297C61.4472 23.2588 61.9388 22.0782 61.9397 20.8471C61.9388 19.616 61.4472 18.4355 60.5728 17.5645C59.6983 16.6935 58.5123 16.2033 57.275 16.2013ZM75.3346 29.4759C70.3456 29.4759 66.733 25.7927 66.733 20.846C66.733 15.9781 70.3346 12.2085 75.3346 12.2085C80.3588 12.2085 83.9362 16.0131 83.9362 20.846C83.9362 25.7577 80.3192 29.4759 75.3346 29.4759ZM75.3346 16.1455C74.0829 16.1475 72.8832 16.6434 71.9984 17.5243C71.1136 18.4053 70.6161 19.5995 70.615 20.8449C70.6161 22.0904 71.1136 23.2845 71.9984 24.1655C72.8832 25.0465 74.0829 25.5424 75.3346 25.5444C76.5863 25.5424 77.7861 25.0465 78.6708 24.1655C79.5556 23.2845 80.0531 22.0904 80.0543 20.8449C80.0531 19.5995 79.5556 18.4053 78.6708 17.5243C77.7861 16.6434 76.5863 16.1475 75.3346 16.1455Z" fill="#212121"/>
</svg>
