<svg width="163" height="24" viewBox="0 0 163 24" fill="none" xmlns="http://www.w3.org/2000/svg">
<path d="M35.392 0.871399H17.6957V18.0616H35.392V0.871399Z" fill="#F04923"/>
<path d="M8.84812 18.0616C13.7259 18.0616 17.6962 14.2092 17.6962 9.46651C17.6962 4.72375 13.7259 0.871399 8.84812 0.871399C3.97031 0.871399 0 4.72375 0 9.46651C0 14.2092 3.95141 18.0616 8.84812 18.0616Z" fill="#0092FE"/>
<path d="M56.8883 3.78416V3.71796V0.937598V0.871399H56.8202H44.3092H44.2411V0.937598V3.71796V3.78416H44.3092H48.9454V18.017V18.0832H49.0136H52.1158H52.1839V18.017V3.78416H56.8202H56.8883Z" fill="black"/>
<path d="M77.2742 5.08929C75.4675 5.08929 74.138 5.71818 73.2517 7.00906L73.0471 7.30696L72.8085 5.45338V5.38718H72.7403H70.2858H70.2177V5.45338V23.0623V23.1285H70.2858H73.1834H73.2517V23.0623V16.0784L73.4902 16.4094C74.2061 17.4354 75.6379 18.0312 77.2742 18.0312C80.6491 18.0312 83.2059 15.2508 83.2059 11.5437C83.2059 7.86965 80.6491 5.08929 77.2742 5.08929ZM76.5583 7.86965C78.5696 7.86965 80.0013 9.39223 80.0013 11.5437C80.0013 13.6951 78.5696 15.2508 76.5583 15.2508C74.922 15.2508 73.1493 13.993 73.1153 11.643V11.4775C73.1493 9.12744 74.8539 7.86965 76.5583 7.86965Z" fill="black"/>
<path d="M93.4317 0.937598L93.3976 0.871399H93.3294H89.75H89.7159L89.6818 0.937598L82.8639 17.9839L82.8298 18.0832H82.9661H86.341H86.4092L86.4433 18.017L87.9091 14.2105H95.2725L96.7384 18.017L96.7725 18.0832H96.8406H100.216H100.352L100.318 17.9839L93.4317 0.937598ZM88.8637 11.5295L91.0795 5.86943L91.5568 4.51235L92.034 5.86943L94.2498 11.5295H88.8637Z" fill="black"/>
<path d="M147.738 5.36914C146.238 5.36914 144.976 6.03114 144.329 7.22271L144.125 7.58681L143.818 5.73324V5.66704H143.75H141.295H141.227V5.73324V17.9801V18.0463H141.295H144.193H144.261V17.9801V11.4925C144.261 9.10939 145.522 8.2488 146.715 8.2488C148.01 8.2488 148.692 9.10939 148.692 10.6651V17.9801V18.0463H148.76H151.693H151.761V17.9801V9.96998C151.829 7.05722 150.329 5.36914 147.738 5.36914Z" fill="black"/>
<path d="M158.816 10.3673C156.805 10.0363 156.43 9.53977 156.43 8.77849C156.43 7.95099 157.043 7.3883 157.999 7.3883C158.987 7.3883 159.532 7.85169 159.6 8.77849V8.84468H159.668H162.566H162.669V8.74538C162.464 6.56081 160.589 5.10443 158.033 5.10443C154.589 5.10443 153.362 7.2559 153.362 9.10947C153.362 11.1286 154.657 12.254 157.419 12.7173C159.498 13.0814 159.907 13.611 159.907 14.4054C159.907 15.2329 159.225 15.7294 158.135 15.7294C156.975 15.7294 156.26 15.1998 156.123 14.2399V14.1737H156.055H153.192H153.09V14.273C153.26 16.6231 155.101 18.0464 158.033 18.0464C162.6 18.0464 162.942 15.0012 162.942 14.0414C162.976 11.9229 161.748 10.8306 158.816 10.3673Z" fill="black"/>
<path d="M133.01 5.10443C129.09 5.10443 126.328 7.7524 126.328 11.5588C126.328 15.3322 129.124 18.0464 133.01 18.0464C136.896 18.0464 139.726 15.3322 139.726 11.5588C139.76 7.7524 136.998 5.10443 133.01 5.10443ZM133.044 15.3653C130.999 15.3653 129.499 13.7765 129.499 11.5919C129.499 9.40737 130.999 7.81859 133.044 7.81859C135.123 7.81859 136.555 9.37427 136.555 11.5919C136.555 13.8096 135.123 15.3653 133.044 15.3653Z" fill="black"/>
<path d="M116.851 5.50366L116.886 2.5247V2.4585H116.817H113.886H113.818V2.5247L113.784 5.37126V8.31712L113.715 14.2088C113.715 15.5328 114.022 16.4597 114.636 17.0885C115.318 17.7505 116.374 18.0483 117.875 18.0483C118.863 18.0483 119.476 17.916 119.783 17.8167L119.851 17.7836V17.7174V15.3011V15.2018L119.749 15.2349C119.408 15.3011 119.067 15.3342 118.624 15.3342C117.294 15.3342 116.783 14.8047 116.783 13.3814L116.851 8.11852H119.783H119.851V8.05232V5.53676V5.50366H119.783H116.851Z" fill="black"/>
<path d="M109.25 13.5448H109.181L109.147 13.611C108.738 14.6702 107.716 15.3322 106.42 15.3322C104.478 15.3322 103.046 13.7434 103.046 11.5919C103.046 9.37428 104.444 7.7855 106.352 7.7855C107.648 7.7855 108.704 8.44749 109.147 9.53977L109.181 9.60597H109.25H112.08H112.182L112.148 9.50667C111.636 6.75941 109.421 5.10443 106.318 5.10443C102.602 5.10443 99.9094 7.81859 99.9094 11.5919C99.9094 15.3984 102.534 18.0464 106.318 18.0464C109.353 18.0464 111.568 16.3914 112.216 13.6772L112.25 13.5779H112.148H109.25V13.5448Z" fill="black"/>
<path d="M66.0831 0.871399C65.2078 0.871399 64.5583 1.51434 64.5583 2.35295C64.5583 3.19156 65.2078 3.8345 66.0831 3.8345C66.9585 3.8345 67.6079 3.19156 67.6079 2.35295C67.6362 1.54229 66.9303 0.871399 66.0831 0.871399Z" fill="black"/>
<path d="M64.6266 5.67096H64.5583V5.77026V18.0171V18.0833H64.6266H67.5583H67.6264V18.0171V5.77026V5.67096H67.5583H64.6266Z" fill="black"/>
<path d="M124.802 0.871399H121.751V3.8345H124.802V0.871399Z" fill="black"/>
<path d="M124.829 5.63733H121.761V18.0497H124.829V5.63733Z" fill="black"/>
<path d="M59.4107 7.65292L59.2402 8.11632L58.8993 5.76625V5.70004H58.8312H56.3085H56.2404V5.76625V18.0131V18.0793H56.3085H59.2061H59.2743V18.0131V11.7903C59.3083 10.665 59.6834 9.87059 60.3651 9.341C61.047 8.81141 61.7969 8.57971 62.8196 8.57971H62.8878V8.51351V5.70004V5.63385H62.8196C60.5356 5.66695 59.7175 6.92473 59.4107 7.65292Z" fill="black"/>
</svg>
