<svg width="217" height="48" viewBox="0 0 217 48" fill="none" xmlns="http://www.w3.org/2000/svg">
<g clip-path="url(#clip0_174_183)">
<path d="M194.135 38.2979H201.939C202.242 39.2819 203.271 40.2658 205.201 40.2658C207.814 40.2658 208.714 38.6432 208.714 36.2437V34.5347H208.541C207.251 36.0365 205.538 37.1413 203.012 37.1413C198.037 37.1413 193.711 33.4644 193.711 26.2747C193.711 19.6891 197.267 14.5535 202.631 14.5535C205.72 14.5535 207.606 15.7964 208.852 17.7643H208.982V15.244H216.7V35.1734C216.7 38.8503 215.41 41.7159 213.481 43.4335C211.465 45.2287 208.593 45.9538 205.331 45.9538C199.196 45.9538 194.914 43.4248 194.135 38.2979ZM209.06 25.8863C209.06 23.0207 207.693 20.7075 205.331 20.7075C203.055 20.7075 201.602 22.7618 201.602 25.8863C201.602 28.9676 203.064 31.1858 205.331 31.1858C207.684 31.1944 209.06 28.9244 209.06 25.8863ZM185.093 19.1712H185.223C186.893 15.9604 189.082 14.7693 191.868 14.7693C192.508 14.7693 192.941 14.8556 193.2 14.9851V22.0454H193.027C188.269 21.1909 185.483 23.4609 185.483 28.631V38.2547H177.376V15.244H185.093V19.1712ZM0.690918 6H16.5589C19.5612 6 21.8713 6.72502 23.5065 8.05422C25.3494 9.54742 26.3358 11.7743 26.3358 14.424C26.3358 17.5054 25.0899 19.4301 22.5202 20.6299V20.7593C25.8686 21.8728 27.798 24.8678 27.798 28.5015C27.798 31.9626 26.4656 34.6642 24.2852 36.2868C22.4423 37.616 20.0457 38.2547 16.8704 38.2547H0.690918V6ZM15.7889 31.1081C17.7183 31.1081 19.1286 29.9515 19.1286 27.811C19.1286 25.5842 17.5885 24.5139 15.7456 24.5139H9.48146V31.0995H15.7889V31.1081ZM14.9669 18.6188C16.68 18.6188 17.9259 17.678 17.9259 15.7964C17.9259 13.958 16.6368 13.0603 14.9236 13.0603H9.48146V18.6188H14.9669Z" fill="black"/>
<path d="M29.2515 6H37.5662V38.2547H29.2515V6ZM39.1582 26.7839C39.1582 19.5164 43.8736 14.5967 51.1673 14.5967C58.461 14.5967 63.0899 19.5164 63.0899 26.7839C63.0899 34.1031 58.461 38.9711 51.1673 38.9711C43.8736 38.9798 39.1582 34.1031 39.1582 26.7839ZM54.8531 26.7839C54.8531 22.7618 53.5639 20.2415 51.0808 20.2415C48.5976 20.2415 47.395 22.7618 47.395 26.7839C47.395 30.8492 48.5976 33.3695 51.0808 33.3695C53.5639 33.3781 54.8531 30.8492 54.8531 26.7839ZM64.033 26.7839C64.033 19.5164 68.7484 14.5967 76.0421 14.5967C83.3358 14.5967 87.9647 19.5164 87.9647 26.7839C87.9647 34.1031 83.3358 38.9711 76.0421 38.9711C68.7484 38.9798 64.033 34.1031 64.033 26.7839ZM79.7279 26.7839C79.7279 22.7618 78.4388 20.2415 75.9556 20.2415C73.4724 20.2415 72.2698 22.7618 72.2698 26.7839C72.2698 30.8492 73.4724 33.3695 75.9556 33.3695C78.4388 33.3781 79.7279 30.8492 79.7279 26.7839ZM89.5481 15.244H97.2657V18.7051H97.3955C98.9356 16.0122 101.038 14.5535 104.343 14.5535C107.259 14.5535 109.448 16.0035 110.564 18.5325H110.694C112.58 15.4943 115.029 14.5535 117.858 14.5535C123.222 14.5535 125.532 18.4893 125.532 23.7889V38.2461H117.425V25.2475C117.425 22.8912 116.698 21.3549 114.639 21.3549C112.623 21.3549 111.594 23.2365 111.594 25.7223V38.2547H103.478V25.2475C103.478 22.8912 102.751 21.3549 100.692 21.3549C98.676 21.3549 97.6464 23.2365 97.6464 25.7223V38.2547H89.5481V15.244ZM135.43 35.2597H135.344V38.2547H127.626V6H135.733V17.6348H135.863C137.403 15.6238 139.462 14.5535 142.421 14.5535C148.209 14.5535 151.558 19.7754 151.558 26.6976C151.558 34.5261 147.915 39.0143 141.911 39.0143C139.419 39.0229 136.849 37.8232 135.43 35.2597ZM143.321 26.6199C143.321 22.8999 141.954 20.5004 139.505 20.5004C137.022 20.5004 135.43 22.8999 135.43 26.6199C135.43 30.2968 137.014 32.7394 139.505 32.7394C141.988 32.7308 143.321 30.3399 143.321 26.6199ZM152.587 26.7062C152.587 19.5164 157.346 14.519 164.25 14.519C167.677 14.519 170.341 15.5892 172.357 17.514C175.014 20.0775 176.216 24.0996 176.13 28.8467H160.651C160.997 31.7123 162.364 33.171 164.813 33.171C166.232 33.171 167.469 32.5323 167.988 30.9873H175.792C174.425 36.2437 170.35 38.9021 164.562 38.9021C157.389 38.8934 152.587 34.06 152.587 26.7062ZM160.651 24.3067H168.023C167.893 21.5275 166.353 20.0688 164.423 20.0688C162.191 20.0688 160.945 21.657 160.651 24.3067Z" fill="black"/>
</g>
<defs>
<clipPath id="clip0_174_183">
<rect width="216" height="48" fill="white" transform="translate(0.690918)"/>
</clipPath>
</defs>
</svg>
